<?xml version="1.0" encoding="UTF-8" standalone="no"?>
<svg
   xmlns:dc="http://purl.org/dc/elements/1.1/"
   xmlns:cc="http://creativecommons.org/ns#"
   xmlns:rdf="http://www.w3.org/1999/02/22-rdf-syntax-ns#"
   xmlns:svg="http://www.w3.org/2000/svg"
   xmlns="http://www.w3.org/2000/svg"
   xmlns:sodipodi="http://sodipodi.sourceforge.net/DTD/sodipodi-0.dtd"
   xmlns:inkscape="http://www.inkscape.org/namespaces/inkscape"
   inkscape:version="1.0 (4035a4fb49, 2020-05-01)"
   sodipodi:docname="inbox.svg"
   id="svg8"
   version="1.1"
   style="-ms-transform: rotate(360deg); -webkit-transform: rotate(360deg); transform: rotate(360deg);"
   viewBox="0 0 16 16"
   preserveAspectRatio="xMidYMid meet"
   height="16"
   width="16">
  <metadata
     id="metadata14">
    <rdf:RDF>
      <cc:Work
         rdf:about="">
        <dc:format>image/svg+xml</dc:format>
        <dc:type
           rdf:resource="http://purl.org/dc/dcmitype/StillImage" />
      </cc:Work>
    </rdf:RDF>
  </metadata>
  <defs
     id="defs12" />
  <sodipodi:namedview
     inkscape:current-layer="svg8"
     inkscape:window-maximized="0"
     inkscape:window-y="0"
     inkscape:window-x="0"
     inkscape:cy="8"
     inkscape:cx="8"
     inkscape:zoom="15.623529"
     showgrid="false"
     id="namedview10"
     inkscape:window-height="480"
     inkscape:window-width="906"
     inkscape:pageshadow="2"
     inkscape:pageopacity="0"
     guidetolerance="10"
     gridtolerance="10"
     objecttolerance="10"
     borderopacity="1"
     bordercolor="#666666"
     pagecolor="#ffffff" />
  <g
     id="g4"
     fill="white">
    <path
       id="path2"
       d="M4.98 4a.5.5 0 0 0-.39.188L1.54 8H6a.5.5 0 0 1 .5.5a1.5 1.5 0 1 0 3 0A.5.5 0 0 1 10 8h4.46l-3.05-3.812A.5.5 0 0 0 11.02 4H4.98zm9.954 5H10.45a2.5 2.5 0 0 1-4.9 0H1.066l.32 2.562a.5.5 0 0 0 .497.438h12.234a.5.5 0 0 0 .496-.438L14.933 9zM3.809 3.563A1.5 1.5 0 0 1 4.981 3h6.038a1.5 1.5 0 0 1 1.172.563l3.7 4.625a.5.5 0 0 1 .105.374l-.39 3.124A1.5 1.5 0 0 1 14.117 13H1.883a1.5 1.5 0 0 1-1.489-1.314l-.39-3.124a.5.5 0 0 1 .106-.374l3.7-4.625z" />
  </g>
</svg>
