<?xml version="1.0" encoding="UTF-8" standalone="no"?>
<svg
   xmlns:dc="http://purl.org/dc/elements/1.1/"
   xmlns:cc="http://creativecommons.org/ns#"
   xmlns:rdf="http://www.w3.org/1999/02/22-rdf-syntax-ns#"
   xmlns:svg="http://www.w3.org/2000/svg"
   xmlns="http://www.w3.org/2000/svg"
   xmlns:sodipodi="http://sodipodi.sourceforge.net/DTD/sodipodi-0.dtd"
   xmlns:inkscape="http://www.inkscape.org/namespaces/inkscape"
   inkscape:version="1.0 (4035a4fb49, 2020-05-01)"
   sodipodi:docname="loader-line.svg"
   id="svg6"
   version="1.1"
   style="-ms-transform: rotate(360deg); -webkit-transform: rotate(360deg); transform: rotate(360deg);"
   viewBox="0 0 24 24"
   preserveAspectRatio="xMidYMid meet"
   height="24"
   width="24">
  <metadata
     id="metadata12">
    <rdf:RDF>
      <cc:Work
         rdf:about="">
        <dc:format>image/svg+xml</dc:format>
        <dc:type
           rdf:resource="http://purl.org/dc/dcmitype/StillImage" />
      </cc:Work>
    </rdf:RDF>
  </metadata>
  <defs
     id="defs10" />
  <sodipodi:namedview
     inkscape:current-layer="svg6"
     inkscape:window-maximized="0"
     inkscape:window-y="0"
     inkscape:window-x="0"
     inkscape:cy="12"
     inkscape:cx="12"
     inkscape:zoom="10.415686"
     showgrid="false"
     id="namedview8"
     inkscape:window-height="480"
     inkscape:window-width="906"
     inkscape:pageshadow="2"
     inkscape:pageopacity="0"
     guidetolerance="10"
     gridtolerance="10"
     objecttolerance="10"
     borderopacity="1"
     bordercolor="#666666"
     pagecolor="#ffffff" />
  <path
     id="path2"
     fill="white"
     d="M12 2a1 1 0 0 1 1 1v3a1 1 0 0 1-2 0V3a1 1 0 0 1 1-1zm0 15a1 1 0 0 1 1 1v3a1 1 0 0 1-2 0v-3a1 1 0 0 1 1-1zm8.66-10a1 1 0 0 1-.366 1.366l-2.598 1.5a1 1 0 1 1-1-1.732l2.598-1.5A1 1 0 0 1 20.66 7zM7.67 14.5a1 1 0 0 1-.366 1.366l-2.598 1.5a1 1 0 1 1-1-1.732l2.598-1.5a1 1 0 0 1 1.366.366zM20.66 17a1 1 0 0 1-1.366.366l-2.598-1.5a1 1 0 0 1 1-1.732l2.598 1.5A1 1 0 0 1 20.66 17zM7.67 9.5a1 1 0 0 1-1.366.366l-2.598-1.5a1 1 0 1 1 1-1.732l2.598 1.5A1 1 0 0 1 7.67 9.5z" />
</svg>
